<?xml version="1.0" encoding="utf-8"?>
<!-- Generator: Adobe Illustrator 18.0.0, SVG Export Plug-In . SVG Version: 6.00 Build 0)  -->
<!DOCTYPE svg PUBLIC "-//W3C//DTD SVG 1.1//EN" "http://www.w3.org/Graphics/SVG/1.1/DTD/svg11.dtd">
<svg version="1.1" id="Layer_1" xmlns="http://www.w3.org/2000/svg" xmlns:xlink="http://www.w3.org/1999/xlink" x="0px" y="0px"
	 viewBox="0 0 612 792" enable-background="new 0 0 612 792" xml:space="preserve">
<g id="Calendar_6">
	<path fill="#FFFFFF" d="M0,663.8c0,23,15.3,38.2,38.2,38.2h535.5c23,0,38.2-15.3,38.2-38.2V281.2H0V663.8z M382.5,396H459v76.5
		h-76.5V396z M382.5,510.8H459v76.5h-76.5V510.8z M267.8,396h76.5v76.5h-76.5V396z M267.8,510.8h76.5v76.5h-76.5V510.8z M153,396
		h76.5v76.5H153V396z M153,510.8h76.5v76.5H153V510.8z"/>
	<path fill="#FFFFFF" d="M573.8,90h-38.2h-153h-153h-153H38.2C15.3,90,0,105.3,0,128.2V243h612V128.2C612,105.3,596.7,90,573.8,90z"
		/>
</g>
</svg>
