<?xml version="1.0" encoding="utf-8"?>
<!-- Generator: Adobe Illustrator 18.0.0, SVG Export Plug-In . SVG Version: 6.00 Build 0)  -->
<!DOCTYPE svg PUBLIC "-//W3C//DTD SVG 1.1//EN" "http://www.w3.org/Graphics/SVG/1.1/DTD/svg11.dtd">
<svg version="1.1" id="Layer_1" xmlns="http://www.w3.org/2000/svg" xmlns:xlink="http://www.w3.org/1999/xlink" x="0px" y="0px"
	 viewBox="0 0 558 180" enable-background="new 0 0 558 180" xml:space="preserve">
<path fill="#FFFFFF" d="M213.9,82.5c0,3.5-0.7,6.6-2,9.2c-1.3,2.6-3,4.7-5.2,6.4c-2.1,1.7-4.5,2.9-7.2,3.7c-2.7,0.8-5.4,1.2-8.2,1.2
	h-17.1v-2.1c0.6,0,1.3-0.1,2.2-0.2c0.9-0.1,1.5-0.2,1.8-0.4c0.6-0.3,1-0.6,1.3-1.1c0.3-0.5,0.4-1.1,0.4-1.8V67.6
	c0-0.7-0.1-1.3-0.3-1.8c-0.2-0.5-0.7-0.9-1.3-1.3c-0.6-0.3-1.3-0.5-2-0.6c-0.7-0.1-1.3-0.2-1.8-0.3v-2.1h18.1c2.5,0,4.9,0.4,7.3,1.2
	c2.4,0.8,4.5,1.8,6.3,3.1c2.4,1.7,4.3,4,5.7,6.8C213.2,75.4,213.9,78.7,213.9,82.5z M206.8,82.5c0-2.8-0.4-5.3-1.1-7.5
	c-0.7-2.2-1.8-4.2-3.2-5.9c-1.3-1.6-3-2.8-4.9-3.8c-2-0.9-4.1-1.4-6.5-1.4c-0.8,0-1.7,0-2.7,0c-1,0-1.7,0.1-2.2,0.1v31.8
	c0,1.8,0.5,3,1.5,3.7c1,0.7,2.6,1,4.8,1c2.5,0,4.6-0.4,6.5-1.3c1.8-0.9,3.3-2.1,4.5-3.6c1.2-1.6,2.1-3.5,2.6-5.7
	C206.5,87.8,206.8,85.3,206.8,82.5z"/>
<path fill="#FFFFFF" d="M231,102.9h-13.9V101c0.4,0,0.9-0.1,1.4-0.1c0.5,0,0.9-0.1,1.2-0.2c0.5-0.2,0.9-0.5,1.2-0.9
	c0.3-0.4,0.4-1,0.4-1.7V80.3c0-0.6-0.1-1.2-0.4-1.7c-0.3-0.5-0.7-0.9-1.2-1.3c-0.4-0.2-0.9-0.4-1.6-0.6c-0.7-0.2-1.3-0.3-1.9-0.3
	v-1.9l10.1-0.6l0.4,0.4v23.4c0,0.7,0.1,1.2,0.4,1.7c0.3,0.4,0.7,0.8,1.2,1c0.4,0.2,0.8,0.3,1.2,0.4c0.4,0.1,0.9,0.2,1.4,0.2V102.9z
	 M227.3,62.5c0,1.1-0.4,2.1-1.1,2.9c-0.7,0.8-1.6,1.2-2.7,1.2c-1,0-1.9-0.4-2.6-1.2c-0.7-0.8-1.1-1.7-1.1-2.7c0-1.1,0.4-2,1.1-2.8
	c0.7-0.8,1.6-1.2,2.6-1.2c1.1,0,2,0.4,2.7,1.1C227,60.6,227.3,61.5,227.3,62.5z"/>
<path fill="#FFFFFF" d="M256.8,100c0.8,0.7,1.4,1.6,1.8,2.5c0.4,0.9,0.7,2.1,0.7,3.5c0,1.4-0.3,2.7-0.9,3.9
	c-0.6,1.2-1.5,2.3-2.7,3.2c-1.3,0.9-2.9,1.6-4.7,2.1c-1.8,0.5-4,0.8-6.7,0.8c-4.4,0-7.6-0.6-9.8-1.9c-2.2-1.3-3.2-3.1-3.2-5.6
	c0-2,0.8-3.5,2.3-4.7c1.6-1.1,3.5-1.8,5.9-1.9v-0.4c-0.6-0.2-1.2-0.4-1.8-0.7c-0.6-0.3-1.2-0.6-1.6-0.9c-0.5-0.4-0.9-0.9-1.2-1.4
	c-0.3-0.6-0.5-1.2-0.5-2.1c0-1,0.4-2,1.1-2.8c0.7-0.9,1.8-1.6,3.3-2.2v-0.4c-1.9-0.9-3.3-2-4.3-3.4c-1-1.4-1.5-3-1.5-4.8
	c0-2.7,1-5,3-6.7c2-1.7,4.6-2.6,7.8-2.6c0.9,0,1.7,0.1,2.6,0.3c0.9,0.2,1.7,0.4,2.6,0.7h10v2.8h-6.8v0.2c0.7,0.8,1.3,1.8,1.6,2.8
	c0.4,1,0.5,2,0.5,3c0,2.5-1,4.7-3.1,6.4c-2.1,1.7-4.4,2.6-7.2,2.6h-3.5c-0.4,0.2-0.9,0.4-1.4,0.8c-0.5,0.4-0.7,1-0.7,1.7
	c0,0.7,0.2,1.3,0.6,1.6c0.4,0.4,0.9,0.6,1.5,0.8c0.6,0.2,1.2,0.3,2,0.3c0.7,0,1.5,0.1,2.3,0.1c0.9,0,2,0.1,3.5,0.2
	c1.5,0.1,2.5,0.2,3.2,0.2c0.9,0,1.8,0.3,2.7,0.6C255.2,98.7,256,99.3,256.8,100z M254.5,107c0-1.1-0.3-2-0.8-2.7
	c-0.5-0.7-1.3-1.2-2.3-1.4c-0.5-0.1-1.7-0.2-3.4-0.3c-1.7-0.1-3.7-0.1-5.9-0.1c-2.1,0.4-3.6,1.1-4.5,2.1c-0.9,1-1.3,2.2-1.3,3.7
	c0,0.7,0.1,1.3,0.4,2c0.3,0.6,0.8,1.2,1.5,1.7c0.7,0.5,1.6,0.9,2.7,1.2c1.1,0.3,2.5,0.5,4.2,0.5c2.9,0,5.1-0.5,6.7-1.6
	C253.7,110.9,254.5,109.2,254.5,107z M248.9,82.9c0-2.3-0.5-4.1-1.4-5.4c-0.9-1.3-2.2-2-3.9-2c-0.9,0-1.7,0.2-2.3,0.6
	c-0.7,0.4-1.2,0.9-1.6,1.6c-0.4,0.6-0.7,1.4-0.8,2.3c-0.2,0.9-0.2,1.8-0.2,2.8c0,2.2,0.5,3.9,1.4,5.3c0.9,1.4,2.2,2,3.7,2
	c1.7,0,3-0.7,3.9-2C248.5,86.7,248.9,85,248.9,82.9z"/>
<path fill="#FFFFFF" d="M276.5,102.9h-13.9V101c0.4,0,0.9-0.1,1.4-0.1c0.5,0,0.9-0.1,1.2-0.2c0.5-0.2,0.9-0.5,1.2-0.9
	c0.3-0.4,0.4-1,0.4-1.7V80.3c0-0.6-0.1-1.2-0.4-1.7c-0.3-0.5-0.7-0.9-1.2-1.3c-0.4-0.2-0.9-0.4-1.6-0.6c-0.7-0.2-1.3-0.3-1.9-0.3
	v-1.9l10.1-0.6l0.4,0.4v23.4c0,0.7,0.1,1.2,0.4,1.7c0.3,0.4,0.7,0.8,1.2,1c0.4,0.2,0.8,0.3,1.2,0.4c0.4,0.1,0.9,0.2,1.4,0.2V102.9z
	 M272.8,62.5c0,1.1-0.4,2.1-1.1,2.9c-0.7,0.8-1.6,1.2-2.7,1.2c-1,0-1.9-0.4-2.6-1.2c-0.7-0.8-1.1-1.7-1.1-2.7c0-1.1,0.4-2,1.1-2.8
	c0.7-0.8,1.6-1.2,2.6-1.2c1.1,0,2,0.4,2.7,1.1C272.5,60.6,272.8,61.5,272.8,62.5z"/>
<path fill="#FFFFFF" d="M296.6,101.7c-1.3,0.5-2.5,1-3.6,1.3c-1.1,0.4-2.5,0.5-4.1,0.5c-2.4,0-4.1-0.6-5.1-1.8
	c-1-1.2-1.5-2.9-1.5-5.1V77.1h-5.2v-2.8h5.3v-8.9h5.3v8.9h8.2v2.8h-8.2v16.1c0,1.2,0,2.2,0.1,3c0.1,0.8,0.3,1.5,0.6,2.1
	c0.3,0.6,0.8,1,1.4,1.3c0.6,0.3,1.5,0.4,2.5,0.4c0.5,0,1.2,0,2.1-0.1c0.9-0.1,1.6-0.2,2-0.3V101.7z"/>
<path fill="#FFFFFF" d="M325.5,102.4c-0.9,0.3-1.7,0.6-2.4,0.8c-0.7,0.2-1.5,0.3-2.3,0.3c-1.5,0-2.7-0.4-3.6-1.1
	c-0.9-0.7-1.5-1.7-1.7-3.1h-0.2c-1.3,1.4-2.6,2.5-4.1,3.2c-1.4,0.7-3.2,1.1-5.2,1.1c-2.2,0-3.9-0.7-5.3-2c-1.4-1.3-2.1-3-2.1-5.2
	c0-1.1,0.2-2.1,0.5-3c0.3-0.9,0.8-1.7,1.4-2.4c0.5-0.6,1.1-1.1,1.9-1.6c0.8-0.5,1.5-0.8,2.2-1.1c0.9-0.3,2.6-0.9,5.3-1.8
	c2.7-0.9,4.5-1.6,5.4-2.1v-2.9c0-0.3-0.1-0.7-0.2-1.5c-0.1-0.7-0.3-1.4-0.7-2c-0.4-0.7-0.9-1.3-1.6-1.9c-0.7-0.5-1.7-0.8-3-0.8
	c-0.9,0-1.7,0.1-2.5,0.5c-0.8,0.3-1.3,0.6-1.6,0.9c0,0.4,0.1,1,0.3,1.7c0.2,0.8,0.3,1.5,0.3,2.1c0,0.7-0.3,1.3-0.9,1.9
	c-0.6,0.6-1.5,0.8-2.5,0.8c-1,0-1.7-0.3-2.1-1c-0.5-0.7-0.7-1.5-0.7-2.3c0-0.9,0.3-1.7,0.9-2.6c0.6-0.8,1.5-1.5,2.5-2.2
	c0.9-0.5,1.9-1,3.2-1.4c1.2-0.4,2.5-0.6,3.6-0.6c1.6,0,3.1,0.1,4.3,0.3c1.2,0.2,2.3,0.7,3.3,1.4c1,0.7,1.7,1.7,2.3,2.9
	c0.5,1.2,0.8,2.8,0.8,4.8c0,2.8,0,5.2-0.1,7.4c-0.1,2.1-0.1,4.5-0.1,7c0,0.8,0.1,1.4,0.4,1.8c0.3,0.4,0.7,0.8,1.2,1.1
	c0.3,0.2,0.8,0.3,1.4,0.3c0.6,0,1.3,0,1.9,0V102.4z M315.3,87c-1.7,0.5-3.1,1-4.3,1.4c-1.2,0.5-2.4,1.1-3.5,1.8
	c-1,0.7-1.7,1.4-2.3,2.4c-0.6,0.9-0.8,2-0.8,3.2c0,1.6,0.4,2.8,1.3,3.6c0.8,0.8,1.9,1.1,3.2,1.1c1.4,0,2.6-0.3,3.6-1
	c1-0.7,1.9-1.5,2.7-2.4L315.3,87z"/>
<path fill="#FFFFFF" d="M341.8,102.9h-14V101c0.4,0,0.9-0.1,1.4-0.1c0.5,0,0.9-0.1,1.3-0.2c0.5-0.2,1-0.5,1.2-0.9
	c0.3-0.4,0.4-1,0.4-1.7V64.7c0-0.7-0.2-1.4-0.5-2c-0.3-0.6-0.7-1.1-1.2-1.4c-0.3-0.2-1-0.4-1.9-0.6c-0.9-0.2-1.7-0.3-2.2-0.3v-1.9
	l10.8-0.6l0.4,0.4v39.4c0,0.7,0.1,1.2,0.4,1.7c0.3,0.4,0.7,0.8,1.2,1c0.4,0.2,0.8,0.3,1.3,0.4c0.4,0.1,0.9,0.2,1.4,0.2V102.9z"/>
<path fill="#FFFFFF" d="M410.4,102.9h-18.3v-2.1c0.7,0,1.5-0.1,2.6-0.2c1-0.1,1.8-0.3,2.1-0.5c0.6-0.4,1-0.8,1.3-1.3
	c0.3-0.5,0.4-1.1,0.4-1.8V67h-0.4L384,102.3h-1.5l-13.4-36h-0.4V91c0,2.4,0.2,4.2,0.5,5.5c0.3,1.2,0.8,2.1,1.4,2.7
	c0.4,0.4,1.3,0.8,2.7,1.2c1.3,0.4,2.2,0.6,2.6,0.6v2.1h-16.7v-2.1c0.9-0.1,1.8-0.2,2.8-0.4c1-0.2,1.7-0.5,2.2-1
	c0.7-0.5,1.1-1.4,1.4-2.5c0.3-1.1,0.4-3,0.4-5.7V70.1c0-1.2-0.1-2.2-0.4-3c-0.3-0.8-0.7-1.4-1.3-1.9c-0.6-0.5-1.3-0.9-2.2-1.2
	c-0.9-0.3-1.7-0.4-2.6-0.4v-2.1h14.1l11.8,31l10.1-26c0.4-1,0.7-1.9,0.9-3c0.3-1,0.4-1.7,0.4-2.1h13.5v2.1c-0.5,0-1.2,0.1-2.1,0.3
	c-0.8,0.2-1.5,0.3-1.9,0.4c-0.7,0.2-1.1,0.6-1.3,1.2c-0.2,0.5-0.3,1.1-0.3,1.8v29.8c0,0.7,0.1,1.3,0.3,1.7c0.2,0.5,0.7,0.9,1.3,1.2
	c0.3,0.2,1,0.4,1.9,0.5c0.9,0.2,1.6,0.3,2.1,0.3V102.9z"/>
<path fill="#FFFFFF" d="M437.1,96.2c-1.2,2.3-2.8,4.1-4.8,5.5c-2,1.4-4.3,2-7,2c-2.3,0-4.3-0.4-6.1-1.2c-1.7-0.8-3.2-1.9-4.3-3.3
	c-1.1-1.4-2-3-2.5-4.9c-0.6-1.9-0.8-3.8-0.8-5.9c0-1.9,0.3-3.7,0.9-5.5c0.6-1.8,1.5-3.4,2.6-4.9c1.1-1.4,2.5-2.5,4.1-3.3
	c1.6-0.8,3.5-1.3,5.5-1.3c2.1,0,3.9,0.3,5.4,1c1.5,0.7,2.7,1.6,3.6,2.7c0.9,1.1,1.6,2.4,2,3.8c0.4,1.5,0.7,3.1,0.7,4.8v1.9h-19
	c0,1.9,0.2,3.6,0.5,5.1c0.4,1.5,0.9,2.9,1.7,4.1c0.8,1.1,1.7,2,3,2.7c1.2,0.7,2.7,1,4.4,1c1.7,0,3.2-0.4,4.5-1.2
	c1.3-0.8,2.5-2.3,3.6-4.4L437.1,96.2z M430.7,85.2c0-1.1-0.1-2.2-0.3-3.5c-0.2-1.2-0.5-2.3-0.9-3.1c-0.4-0.9-1.1-1.6-1.8-2.2
	c-0.8-0.6-1.8-0.8-3-0.8c-2,0-3.7,0.8-5.1,2.5c-1.4,1.7-2.1,4.1-2.2,7.1H430.7z"/>
<path fill="#FFFFFF" d="M471.9,102.4l-10.1,0.6l-0.4-0.4V100l-0.2-0.1c-1,1.1-2.3,2.1-3.7,2.8c-1.5,0.7-3,1.1-4.6,1.1
	c-1.6,0-3.2-0.4-4.7-1.1c-1.5-0.7-2.8-1.8-4-3.1c-1.1-1.3-2.1-3-2.7-4.8c-0.7-1.9-1-4-1-6.2c0-2.1,0.4-4.1,1.1-5.9
	c0.7-1.9,1.7-3.5,3-4.9c1.2-1.3,2.6-2.3,4.3-3.1c1.7-0.8,3.5-1.2,5.3-1.2c1.3,0,2.7,0.2,3.9,0.5c1.3,0.3,2.4,0.8,3.3,1.3v-10
	c0-0.8-0.1-1.6-0.4-2.2c-0.3-0.7-0.7-1.2-1.1-1.5c-0.5-0.4-1.3-0.6-2.2-0.8c-0.9-0.2-1.9-0.3-3-0.4v-1.8l11.8-0.6l0.4,0.4V97
	c0,0.7,0.1,1.3,0.4,1.7c0.3,0.5,0.6,0.9,1.2,1.2c0.4,0.2,0.9,0.4,1.6,0.4c0.7,0.1,1.3,0.1,1.9,0.1V102.4z M461.4,97.4V80.5
	c-0.2-0.5-0.4-1-0.8-1.6c-0.4-0.6-0.8-1.1-1.3-1.6c-0.6-0.5-1.2-0.9-2-1.2c-0.8-0.3-1.6-0.5-2.6-0.5c-1.2,0-2.2,0.3-3.2,0.9
	c-1,0.6-1.8,1.5-2.6,2.6c-0.7,1.1-1.3,2.5-1.7,4.2c-0.4,1.7-0.6,3.5-0.6,5.6c0,1.6,0.2,3.1,0.5,4.4c0.3,1.3,0.8,2.6,1.6,3.7
	c0.7,1.1,1.5,2,2.6,2.6c1.1,0.7,2.3,1,3.8,1c1.5,0,2.8-0.3,3.9-1C459.8,98.9,460.7,98.2,461.4,97.4z"/>
<path fill="#FFFFFF" d="M488.6,102.9h-13.9V101c0.4,0,0.9-0.1,1.4-0.1c0.5,0,0.9-0.1,1.2-0.2c0.5-0.2,0.9-0.5,1.2-0.9
	c0.3-0.4,0.4-1,0.4-1.7V80.3c0-0.6-0.1-1.2-0.4-1.7c-0.3-0.5-0.7-0.9-1.2-1.3c-0.4-0.2-0.9-0.4-1.6-0.6c-0.7-0.2-1.3-0.3-1.9-0.3
	v-1.9l10.1-0.6l0.4,0.4v23.4c0,0.7,0.1,1.2,0.4,1.7c0.3,0.4,0.7,0.8,1.2,1c0.4,0.2,0.8,0.3,1.2,0.4c0.4,0.1,0.9,0.2,1.4,0.2V102.9z
	 M485,62.5c0,1.1-0.4,2.1-1.1,2.9c-0.7,0.8-1.6,1.2-2.7,1.2c-1,0-1.8-0.4-2.6-1.2c-0.7-0.8-1.1-1.7-1.1-2.7c0-1.1,0.4-2,1.1-2.8
	c0.7-0.8,1.6-1.2,2.6-1.2c1.1,0,2,0.4,2.7,1.1C484.7,60.6,485,61.5,485,62.5z"/>
<path fill="#FFFFFF" d="M519.4,102.4c-0.9,0.3-1.7,0.6-2.4,0.8c-0.7,0.2-1.5,0.3-2.3,0.3c-1.5,0-2.7-0.4-3.6-1.1
	c-0.9-0.7-1.5-1.7-1.7-3.1h-0.2c-1.3,1.4-2.6,2.5-4.1,3.2c-1.4,0.7-3.2,1.1-5.2,1.1c-2.2,0-3.9-0.7-5.3-2c-1.4-1.3-2.1-3-2.1-5.2
	c0-1.1,0.2-2.1,0.5-3c0.3-0.9,0.8-1.7,1.4-2.4c0.5-0.6,1.1-1.1,1.9-1.6c0.8-0.5,1.5-0.8,2.2-1.1c0.9-0.3,2.7-0.9,5.3-1.8
	c2.7-0.9,4.5-1.6,5.4-2.1v-2.9c0-0.3-0.1-0.7-0.2-1.5c-0.1-0.7-0.3-1.4-0.7-2c-0.4-0.7-0.9-1.3-1.6-1.9c-0.7-0.5-1.7-0.8-3-0.8
	c-0.9,0-1.7,0.1-2.5,0.5c-0.8,0.3-1.3,0.6-1.6,0.9c0,0.4,0.1,1,0.3,1.7c0.2,0.8,0.3,1.5,0.3,2.1c0,0.7-0.3,1.3-0.9,1.9
	c-0.6,0.6-1.5,0.8-2.5,0.8c-1,0-1.7-0.3-2.1-1c-0.5-0.7-0.7-1.5-0.7-2.3c0-0.9,0.3-1.7,0.9-2.6c0.6-0.8,1.5-1.5,2.5-2.2
	c0.9-0.5,1.9-1,3.2-1.4c1.2-0.4,2.5-0.6,3.6-0.6c1.6,0,3.1,0.1,4.3,0.3c1.2,0.2,2.3,0.7,3.3,1.4c1,0.7,1.7,1.7,2.3,2.9
	c0.5,1.2,0.8,2.8,0.8,4.8c0,2.8,0,5.2-0.1,7.4c-0.1,2.1-0.1,4.5-0.1,7c0,0.8,0.1,1.4,0.4,1.8c0.3,0.4,0.7,0.8,1.2,1.1
	c0.3,0.2,0.8,0.3,1.4,0.3c0.6,0,1.3,0,1.9,0V102.4z M509.3,87c-1.7,0.5-3.1,1-4.3,1.4c-1.2,0.5-2.4,1.1-3.5,1.8
	c-1,0.7-1.7,1.4-2.3,2.4c-0.6,0.9-0.8,2-0.8,3.2c0,1.6,0.4,2.8,1.3,3.6c0.8,0.8,1.9,1.1,3.2,1.1c1.4,0,2.6-0.3,3.6-1
	c1-0.7,1.9-1.5,2.7-2.4L509.3,87z"/>
<path fill="#FFFFFF" d="M186.6,45.7c0-3.3-1.7-5.8-4.5-5.8c-0.4,0-1,0-1.4,0v10c0.1,0.9,0.6,1.3,1.8,1.3
	C185.4,51.4,186.6,49,186.6,45.7 M176.4,51.5c0.4,0,1.1-0.1,1.3-0.2c0.4-0.2,0.6-0.5,0.6-0.9v-9.3c0-0.4-0.1-0.7-0.6-0.9
	c-0.4-0.2-0.9-0.3-1.3-0.3v-0.4h6c2.6,0,6.9,1.3,6.9,6.3c0,4.3-3.6,6.2-7.2,6.2h-5.7V51.5z"/>
<path fill="#FFFFFF" d="M199.2,45.3c1.6,0,3-0.6,3-2.7c0-2-1.1-2.6-2.6-2.6h-1.2v5.4H199.2z M202,49.1c-0.2-1.7-0.6-3.2-2.5-3.2
	h-1.1v4.5c0,0.4,0.1,0.7,0.5,0.9c0.2,0.1,1,0.2,1.3,0.3v0.4h-6.2v-0.4c0.3,0,1.1-0.1,1.4-0.2c0.4-0.2,0.6-0.5,0.6-0.9V41
	c0-0.4-0.1-0.8-0.6-0.9c-0.3-0.1-1-0.3-1.4-0.3v-0.4h6.5c2.3,0,4.3,0.8,4.3,2.8c0,2-1.9,2.8-3.4,3.2v0.1c0.9,0.1,2.3,0.6,2.7,1.9
	c0.3,1,0.4,1.8,0.6,2.7c0.2,0.7,0.6,0.9,0.9,0.9c0.5,0,0.9-0.5,0.9-1.7V49h0.5l0,0.4c0,1.6-0.7,2.7-2.5,2.7
	C203,52.1,202.3,51.2,202,49.1"/>
<path fill="#FFFFFF" d="M211.1,51.5c0.3,0,1.2-0.1,1.4-0.2c0.4-0.2,0.6-0.5,0.6-0.9v-9.3c0-0.4-0.1-0.7-0.6-0.9
	c-0.3-0.1-1.1-0.3-1.4-0.3v-0.4h10.4v3H221c-0.2-0.8-1.2-2.3-2-2.4c-0.4-0.1-0.9-0.1-1.5-0.1h-1.9v5.2h1.4c1,0,1.3-0.3,1.6-0.5
	c0.3-0.3,0.6-1.2,0.6-1.7h0.5V48h-0.5c-0.1-0.5-0.4-1.5-0.6-1.8c-0.3-0.3-0.6-0.5-1.6-0.5h-1.4v4c0,1.4,0.3,1.6,2.1,1.6
	c1.2,0,2.4,0,2.8-0.4c0.6-0.6,1.3-2.1,1.6-2.7h0.5l-0.2,3.7h-11.1V51.5z"/>
<path fill="#FFFFFF" d="M236.4,40.6c0-0.5-0.8-0.7-1.8-0.7v-0.4h5.2v0.4c-0.4,0-0.9,0.1-1.3,0.3c-0.7,0.3-1.2,0.8-1.6,1.3
	c-1,1.2-2,2.5-2.8,3.5c0.9,1.3,3,4.3,3.5,5c0.4,0.5,0.7,1,1.4,1.3c0.3,0.1,0.9,0.2,1.3,0.3v0.4h-7.2v-0.4c1.1-0.1,1.9-0.2,1.9-0.7
	c0-0.5-1.2-2.2-2.6-4.2c-0.8,1-2.9,3.6-2.9,4.2c0,0.5,0.8,0.7,1.8,0.8v0.4h-5.2v-0.4c0.4,0,0.9-0.1,1.3-0.3c0.7-0.3,1.2-0.8,1.6-1.3
	c1.1-1.4,2.2-2.8,3.1-3.9c-1.2-1.7-2.4-3.5-3.2-4.7c-0.4-0.6-0.7-1-1.4-1.3c-0.3-0.1-0.9-0.2-1.3-0.3v-0.4h7.1v0.4
	c-1.1,0.1-1.9,0.2-1.9,0.7c0,0.7,1.5,2.7,2.3,3.8C234.7,43.3,236.4,41.1,236.4,40.6"/>
<path fill="#FFFFFF" d="M244.2,51.5c0.3,0,1.2-0.1,1.4-0.2c0.4-0.2,0.6-0.5,0.6-0.9v-9.3c0-0.4-0.1-0.7-0.6-0.9
	c-0.3-0.1-1.1-0.3-1.4-0.3v-0.4h10.4v3h-0.5c-0.2-0.8-1.2-2.3-2-2.4c-0.4-0.1-0.9-0.1-1.5-0.1h-1.9v5.2h1.4c1,0,1.3-0.3,1.6-0.5
	c0.3-0.3,0.6-1.2,0.6-1.7h0.5V48h-0.5c-0.1-0.5-0.4-1.5-0.6-1.8c-0.3-0.3-0.6-0.5-1.6-0.5h-1.4v4c0,1.4,0.3,1.6,2.1,1.6
	c1.2,0,2.4,0,2.8-0.4c0.6-0.6,1.3-2.1,1.6-2.7h0.5l-0.2,3.7h-11.1V51.5z"/>
<path fill="#FFFFFF" d="M260,51.5c0.3,0,1.1-0.1,1.4-0.2c0.4-0.2,0.6-0.5,0.6-0.9v-9.3c0-0.4-0.1-0.7-0.6-0.9
	c-0.3-0.1-1-0.3-1.4-0.3v-0.4h6.2v0.4c-0.3,0-1,0.1-1.3,0.3c-0.5,0.1-0.6,0.5-0.6,0.9v8.7c0,1.5,0.3,1.6,2.1,1.6
	c1,0,2.1-0.1,2.5-0.5c0.5-0.6,1.4-2,1.6-2.7h0.4l-0.3,3.7H260V51.5z"/>
<path fill="#FFFFFF" d="M284.4,48.2v-7.2c0-0.4-0.1-0.7-0.6-0.9c-0.3-0.2-1-0.3-1.3-0.3v-0.4h6.1v0.4c-0.3,0-1,0.1-1.3,0.2
	c-0.5,0.1-0.6,0.5-0.6,0.9v7c0,1.9,0.7,3.3,3.1,3.3c2.5,0,3.4-1.7,3.4-3.4v-5.1c0-1.4-0.2-2.2-0.6-2.5c-0.4-0.3-1.4-0.5-1.8-0.6
	v-0.4h5.4v0.4c-0.3,0-1.3,0.2-1.7,0.5c-0.5,0.3-0.6,1.2-0.6,2.5V48c0,3-2.5,4.1-4.7,4.1C286.1,52.2,284.4,50.5,284.4,48.2"/>
<path fill="#FFFFFF" d="M303.1,42v6.4c0,1.4,0.2,2.2,0.6,2.5c0.3,0.3,1.5,0.5,1.8,0.6v0.4h-5.4v-0.4c0.3,0,1.4-0.3,1.7-0.5
	c0.4-0.3,0.6-1.1,0.6-2.5v-6.4c0-0.5-0.2-1.1-0.6-1.4c-0.4-0.4-1.3-0.7-1.8-0.8v-0.4h4.1l7.1,9.1v-5.6c0-1.4-0.2-2.2-0.6-2.5
	c-0.3-0.2-1.4-0.5-1.8-0.6v-0.4h5.4v0.4c-0.3,0-1.3,0.2-1.7,0.5c-0.4,0.3-0.6,1.2-0.6,2.5V52H311L303.1,42z"/>
<path fill="#FFFFFF" d="M318.3,51.5c0.3,0,1.1-0.1,1.3-0.2c0.4-0.2,0.6-0.5,0.6-0.9v-9.4c0-0.4-0.1-0.7-0.6-0.9
	c-0.3-0.1-1-0.3-1.3-0.3v-0.4h6.2v0.4c-0.3,0-1,0.1-1.3,0.3c-0.4,0.1-0.5,0.5-0.5,0.9v9.4c0,0.4,0.1,0.7,0.5,0.9
	c0.2,0.1,1,0.3,1.3,0.3v0.4h-6.2V51.5z"/>
<path fill="#FFFFFF" d="M330.2,41.2c-0.2-0.5-0.3-0.7-0.8-1c-0.3-0.2-0.8-0.3-1.2-0.3v-0.4h6.2v0.4c-1,0.1-1.7,0.3-1.7,0.7
	c0,0.1,0,0.3,0.1,0.5c0.2,0.6,1.8,5.1,2.9,8.2c0.8-1.9,2-4.8,2.3-5.7c0.5-1.3,0.9-2.1,0.9-2.7c0-0.5-1.2-0.9-2.1-0.9v-0.4h4.9v0.4
	c-0.3,0-0.9,0.2-1.2,0.4c-0.5,0.3-0.7,0.8-1,1.4c-0.6,1.3-3.3,7.8-4.3,10.4h-1C332.8,48.5,330.7,42.4,330.2,41.2"/>
<path fill="#FFFFFF" d="M345.1,51.5c0.3,0,1.2-0.1,1.4-0.2c0.4-0.2,0.6-0.5,0.6-0.9v-9.3c0-0.4-0.1-0.7-0.6-0.9
	c-0.3-0.1-1.1-0.3-1.4-0.3v-0.4h10.4v3H355c-0.2-0.8-1.2-2.3-2-2.4c-0.4-0.1-0.9-0.1-1.5-0.1h-1.9v5.2h1.4c1,0,1.3-0.3,1.6-0.5
	c0.3-0.3,0.6-1.2,0.6-1.7h0.5V48h-0.5c-0.1-0.5-0.4-1.5-0.6-1.8c-0.3-0.3-0.6-0.5-1.6-0.5h-1.4v4c0,1.4,0.3,1.6,2.1,1.6
	c1.2,0,2.4,0,2.8-0.4c0.6-0.6,1.3-2.1,1.6-2.7h0.5l-0.2,3.7h-11.1V51.5z"/>
<path fill="#FFFFFF" d="M366,45.3c1.6,0,3-0.6,3-2.7c0-2-1.1-2.6-2.6-2.6h-1.2v5.4H366z M368.8,49.1c-0.2-1.7-0.6-3.2-2.5-3.2h-1.1
	v4.5c0,0.4,0.1,0.7,0.5,0.9c0.2,0.1,1,0.2,1.3,0.3v0.4h-6.2v-0.4c0.3,0,1.1-0.1,1.3-0.2c0.4-0.2,0.6-0.5,0.6-0.9V41
	c0-0.4-0.1-0.8-0.6-0.9c-0.3-0.1-1-0.3-1.3-0.3v-0.4h6.5c2.3,0,4.3,0.8,4.3,2.8c0,2-1.9,2.8-3.4,3.2v0.1c0.9,0.1,2.3,0.6,2.7,1.9
	c0.3,1,0.4,1.8,0.6,2.7c0.2,0.7,0.6,0.9,0.9,0.9c0.5,0,0.9-0.5,0.9-1.7V49h0.5l0,0.4c0,1.6-0.7,2.7-2.5,2.7
	C369.8,52.1,369,51.2,368.8,49.1"/>
<path fill="#FFFFFF" d="M379.4,51.2l-0.6,0.8h-0.6l-0.1-4.4h0.4c0.7,1.9,2,3.9,4.1,3.9c1.5,0,2.3-0.9,2.3-2.3c0-1.1-0.7-1.8-1.9-2.3
	c-0.9-0.3-1.7-0.6-2.5-1c-1.5-0.6-2.2-1.8-2.2-3.4c0-2,1.6-3.5,3.9-3.5c1.1,0,2.2,0.4,2.9,0.9l0.5-0.8h0.6l0.1,4.2H386
	c-0.8-2.3-1.9-3.7-3.8-3.7c-0.9,0-1.9,0.7-1.9,1.9c0,1.1,0.6,1.7,1.8,2.3c0.9,0.4,1.7,0.6,2.4,0.9c1.5,0.7,2.5,1.5,2.5,3.4
	c0,2.2-1.8,3.9-4.4,3.9C381,52.2,380,51.6,379.4,51.2"/>
<path fill="#FFFFFF" d="M391.8,51.5c0.3,0,1.1-0.1,1.3-0.2c0.4-0.2,0.6-0.5,0.6-0.9v-9.4c0-0.4-0.1-0.7-0.6-0.9
	c-0.3-0.1-1-0.3-1.3-0.3v-0.4h6.2v0.4c-0.3,0-1,0.1-1.3,0.3c-0.4,0.1-0.5,0.5-0.5,0.9v9.4c0,0.4,0.1,0.7,0.5,0.9
	c0.2,0.1,1,0.3,1.3,0.3v0.4h-6.2V51.5z"/>
<path fill="#FFFFFF" d="M404.8,51.5c0.3,0,1.2-0.1,1.5-0.2c0.4-0.2,0.6-0.5,0.6-0.9V40h-0.6c-0.4,0-1,0-1.4,0.1
	c-0.8,0.1-1.8,1.9-2,2.7h-0.5v-3.3h11.4v3.3h-0.5c-0.2-0.8-1.2-2.6-2-2.7c-0.4-0.1-0.9-0.1-1.4-0.1h-0.6v10.3c0,0.4,0.1,0.7,0.6,0.9
	c0.2,0.1,1.1,0.3,1.5,0.3v0.4h-6.5V51.5z"/>
<path fill="#FFFFFF" d="M420,51.5c0.3,0,1.3-0.1,1.5-0.2c0.4-0.2,0.6-0.5,0.6-0.9v-2.9c0-0.6-0.1-0.9-0.5-1.6
	c-0.7-1.3-1.8-3.5-2.4-4.5c-0.3-0.5-0.7-1-1.1-1.2c-0.3-0.2-0.8-0.3-1.2-0.3v-0.4h6.4v0.4c-0.6,0-1.8,0.2-1.8,0.6
	c0,0.2,1.4,3,2.8,5.4c0.8-1.3,2.9-4.8,2.9-5.2c0-0.5-1-0.8-1.9-0.8v-0.4h4.7v0.4c-0.3,0-0.8,0.2-1.1,0.4c-0.5,0.3-0.8,0.6-1.1,1.1
	c-0.6,0.8-1.9,3.1-2.7,4.5c-0.5,0.9-0.6,1.4-0.6,2.2v2.3c0,0.4,0.1,0.7,0.6,0.9c0.2,0.1,1.1,0.3,1.5,0.3v0.4H420V51.5z"/>
<path fill="#FFFFFF" d="M277.8,138.9c-4.2,0-7.1-2.9-7.1-7.4c0-4.4,3.2-7.7,7.5-7.7c1.2,0,2.6,0.6,3.2,1.2l0.6-1.1h0.9l0.1,5.3h-0.5
	c-0.8-2.5-2.2-4.7-5-4.7c-2.2,0-4.3,2.1-4.3,7c0,3.9,2.3,6.5,5.1,6.5c2.6,0,3.8-1.3,4.6-3.2l0.6,0.3
	C282.8,136.9,281.1,138.9,277.8,138.9"/>
<path fill="#FFFFFF" d="M289.1,129.2c-2.2,0-2.8,2.5-2.8,4.5c0,2.5,0.8,4.8,2.8,4.8c1.9,0,2.7-2.2,2.7-4.7
	C291.8,131.5,291.2,129.2,289.1,129.2 M289,138.9c-2.6,0-4.8-1.9-4.8-5.1c0-3,2-5.1,5-5.1c3,0,4.9,2.2,4.9,5
	C294,136.5,292.2,138.9,289,138.9"/>
<path fill="#FFFFFF" d="M293.9,138.6v-0.4c0.4,0,0.6-0.1,0.9-0.2c0.4-0.1,0.6-0.5,0.6-1V125c0-0.5-0.2-1-0.6-1.2
	c-0.3-0.2-1.1-0.4-1.5-0.4v-0.4l3.9-0.2l0.1,0.1V137c0,0.5,0.2,0.8,0.6,1c0.3,0.2,0.6,0.2,0.9,0.3v0.4H293.9z"/>
<path fill="#FFFFFF" d="M299.4,138.6v-0.4c0.4,0,0.6-0.1,0.9-0.2c0.4-0.1,0.6-0.5,0.6-1V125c0-0.5-0.2-1-0.6-1.2
	c-0.3-0.2-1.1-0.4-1.5-0.4v-0.4l3.9-0.2l0.1,0.1V137c0,0.5,0.2,0.8,0.6,1c0.3,0.2,0.6,0.2,0.9,0.3v0.4H299.4z"/>
<path fill="#FFFFFF" d="M308.8,129.2c-1.3,0-2.3,1.3-2.3,3.3l4.3,0C310.7,130.9,310.4,129.2,308.8,129.2 M309,138.9
	c-3.2,0-4.7-2.3-4.7-5.2c0-2.6,1.6-5,4.5-5c2.9,0,4,1.9,4,4.1v0.2h-6.4v0.2c0,2.8,0.9,4.7,3.2,4.7c1.7,0,2.2-0.6,3-1.9l0.4,0.3
	C312.2,137.8,310.8,138.9,309,138.9"/>
<path fill="#FFFFFF" d="M317.7,129.2c-1.4,0-1.7,1.2-1.7,2.6c0,1.5,0.7,2.7,1.8,2.7c1.3,0,1.8-1.2,1.8-2.6
	C319.5,130.5,319,129.2,317.7,129.2 M320.5,138.9c-0.5-0.1-1.4-0.2-3.3-0.2c-1.5,0.3-2.1,0.9-2.1,2.2c0,0.9,0.8,1.9,3.2,1.9
	c2.1,0,3.3-0.8,3.3-2.5C321.6,139.9,321.5,139.2,320.5,138.9 M322.9,130.8c-0.7,0-0.9-0.5-0.9-1.4c-0.7,0-1,0.1-1.3,0.4v0.1
	c0.5,0.6,0.8,1.4,0.8,2c0,1.9-1.9,3-3.6,3h-1.2c-0.4,0.2-0.7,0.4-0.7,0.9c0,1,1.2,1,2.3,1c0.6,0,1.9,0.1,2.4,0.1
	c1.3,0.1,2.7,1.1,2.7,2.9c0,2-1.7,3.5-5.4,3.5c-3.4,0-4.6-1-4.6-2.6c0-1.2,1.1-2.2,3.4-2.3v-0.1c-0.8-0.2-2.2-0.7-2.2-1.9
	c0-1,1.2-1.5,1.9-1.7v-0.1c-1.5-0.6-2.4-1.6-2.4-2.8c0-2,1.7-3.1,3.8-3.1c1.5,0,2.6,0.6,2.9,0.6c0.8-0.5,1.2-0.6,2.2-0.6
	c0.5,0,1,0.4,1,1C323.8,130.3,323.5,130.8,322.9,130.8"/>
<path fill="#FFFFFF" d="M328.4,129.2c-1.3,0-2.3,1.3-2.3,3.3l4.3,0C330.3,130.9,330,129.2,328.4,129.2 M328.6,138.9
	c-3.2,0-4.7-2.3-4.7-5.2c0-2.6,1.6-5,4.5-5c2.9,0,4,1.9,4,4.1v0.2H326v0.2c0,2.8,0.9,4.7,3.2,4.7c1.7,0,2.2-0.6,3-1.9l0.4,0.3
	C331.9,137.8,330.4,138.9,328.6,138.9"/>
<path fill="#FFFFFF" d="M342.8,129.2c-2.2,0-2.8,2.5-2.8,4.5c0,2.5,0.8,4.8,2.8,4.8c1.9,0,2.7-2.2,2.7-4.7
	C345.5,131.5,344.8,129.2,342.8,129.2 M342.6,138.9c-2.6,0-4.8-1.9-4.8-5.1c0-3,2-5.1,5-5.1c3,0,4.9,2.2,4.9,5
	C347.7,136.5,345.9,138.9,342.6,138.9"/>
<path fill="#FFFFFF" d="M355.8,125.7c-0.5,0-1.2-0.2-1.2-1c0-0.3,0.1-0.7,0.1-1.1c-0.1-0.3-0.3-0.4-0.5-0.4c-1.3,0-2,1.3-2.1,4.5
	c0,0.3,0,0.9,0,1.3h2.7v0.9h-2.7v7.1c0,0.4,0.2,0.8,0.6,1c0.3,0.1,1,0.2,1.4,0.3v0.4h-5.4v-0.4c0.4,0,0.6-0.1,0.9-0.1
	c0.4-0.1,0.6-0.5,0.6-1v-7.2H348V129h2.2v-0.7c0-1.8,0.4-3.3,1.4-4.4c0.9-0.9,2-1.3,3.1-1.3c1.6,0,2.3,1,2.3,1.9
	C357,125,356.6,125.7,355.8,125.7"/>
<path fill="#FFFFFF" d="M371.4,138.6v-0.5c0.4,0,1.6-0.1,1.9-0.3c0.5-0.3,0.7-0.6,0.7-1.1v-10.9l-5.5,12.5H368c-0.3-0.8-0.7-2-1.1-3
	l-4.1-9.3v8.4c0,1.6,0.3,2.5,0.7,2.9c0.4,0.3,1.8,0.6,2.2,0.7v0.5h-6.4v-0.5c0.4,0,1.5-0.2,2-0.5c0.5-0.4,0.7-1.3,0.7-2.9v-7.8
	c0-0.9-0.2-1.4-0.7-1.7c-0.5-0.4-1.3-0.6-1.9-0.6v-0.5h4.8l4.9,10.9l4-9c0.3-0.8,0.5-1.6,0.5-1.8h4.8v0.5c-0.4,0-1.2,0.2-1.6,0.3
	c-0.5,0.2-0.7,0.6-0.7,1v10.9c0,0.5,0.2,0.8,0.7,1c0.3,0.1,1.2,0.3,1.6,0.3v0.5H371.4z"/>
<path fill="#FFFFFF" d="M382.4,129.2c-1.3,0-2.3,1.3-2.4,3.3l4.3,0C384.3,130.9,384,129.2,382.4,129.2 M382.6,138.9
	c-3.2,0-4.7-2.3-4.7-5.2c0-2.6,1.6-5,4.5-5c2.9,0,4,1.9,4,4.1v0.2H380v0.2c0,2.8,0.9,4.7,3.2,4.7c1.7,0,2.2-0.6,3-1.9l0.4,0.3
	C385.8,137.8,384.4,138.9,382.6,138.9"/>
<path fill="#FFFFFF" d="M394.7,130.9c-0.2-0.7-0.9-1.8-2.4-1.8c-1.6,0-2.9,1.8-2.9,4.7c0,2.1,0.9,4.2,3.1,4.2c1,0,1.6-0.5,2.2-1.1
	V130.9z M394.8,138.7l-0.1-0.2v-0.9l-0.1,0c-0.5,0.5-1.5,1.3-2.8,1.3c-2.5,0-4.5-2-4.5-5.2c0-2.9,2.3-5,4.9-5c1.3,0,2.3,0.5,2.6,0.6
	v-4.2c0-0.4-0.2-1-0.6-1.2c-0.4-0.3-1.3-0.4-1.9-0.5v-0.4l4.2-0.2l0.1,0.2v13.8c0,0.4,0.2,0.8,0.6,1c0.3,0.2,0.9,0.3,1.3,0.3v0.4
	L394.8,138.7z"/>
<path fill="#FFFFFF" d="M401.2,126c-0.7,0-1.3-0.6-1.3-1.3c0-0.7,0.6-1.3,1.3-1.3c0.8,0,1.3,0.6,1.3,1.3
	C402.5,125.3,402,126,401.2,126 M398.9,138.6v-0.4c0.4,0,0.6-0.1,0.9-0.2c0.4-0.1,0.6-0.5,0.6-1V131c0-0.4-0.2-0.8-0.6-1.1
	c-0.3-0.2-0.9-0.4-1.3-0.4v-0.4l3.6-0.2l0.2,0.1v8c0,0.4,0.2,0.8,0.6,1c0.3,0.2,0.7,0.2,0.9,0.3v0.4H398.9z"/>
<path fill="#FFFFFF" d="M406.7,136.3c0,1.2,0.5,1.7,1.4,1.7c1.1,0,1.6-0.5,2.1-1.1l0.1-3.7C408.2,133.8,406.7,134.4,406.7,136.3
	 M412.2,138.8c-1,0-1.5-0.4-1.9-1.4h-0.1c-0.8,0.9-1.9,1.5-3.2,1.5c-1.5,0-2.5-0.9-2.5-2.3c0-1.8,1-2.3,2.1-2.8
	c1.2-0.5,2.7-0.8,3.6-1.3v-1.2c0-0.4-0.1-2.2-1.8-2.2c-0.8,0-1.1,0.5-1.3,0.7c0,0.3,0.2,0.8,0.2,1.3c0,0.4-0.5,0.9-1.2,0.9
	c-0.7,0-1-0.6-1-1.1c0-1.3,1.8-2.3,3.4-2.3c2.1,0,3.7,0.3,3.7,3.2c0,1.9-0.1,4.1-0.1,4.8c0,0.3,0.3,1.1,1,1.1c0.7,0,0.8-0.8,0.8-1.6
	h0.5C414.4,138.1,413.5,138.8,412.2,138.8"/>
<path fill="#FFFFFF" d="M425.1,126.8l-2.3,6h4.7L425.1,126.8z M427,138.6v-0.5c0.7,0,2.2-0.3,2.2-0.8c0-0.1,0-0.3-0.1-0.5l-1.3-3.4
	h-5.2c-0.4,1-0.7,1.7-0.9,2.3c-0.2,0.5-0.2,0.9-0.2,1.2c0,0.8,1.7,1.1,2.4,1.2v0.5H418v-0.5c0.4,0,1.1-0.2,1.5-0.4
	c0.5-0.3,0.9-0.9,1.2-1.7c1.5-3.7,3.3-8.2,4.9-12.3h0.8c2.2,5.5,4.3,10.9,5.1,12.9c0.2,0.4,0.4,0.7,0.9,1c0.4,0.2,1,0.4,1.4,0.4v0.5
	H427z"/>
<path fill="#FFFFFF" d="M440.1,131.4c-0.7,0-1.2-0.3-1.2-1c0-0.2,0.1-0.4,0.1-0.7c-1.1,0-1.9,0.9-2.1,1.4v5.9c0,0.5,0.2,0.8,0.6,1
	c0.4,0.1,1,0.2,1.4,0.3v0.4h-5.4v-0.4c0.4,0,0.6-0.1,0.9-0.1c0.4-0.1,0.6-0.5,0.6-1V131c0-0.4-0.2-0.9-0.6-1.1
	c-0.3-0.2-0.7-0.3-1-0.3v-0.4l3.4-0.2l0.1,0.2v1.4h0c0.9-1.2,2-1.7,2.9-1.7c0.7,0,1.3,0.6,1.3,1.3
	C441.2,130.8,440.8,131.4,440.1,131.4"/>
<path fill="#FFFFFF" d="M446.3,138.8c-1.7,0-2.6-1-2.6-2.9v-6h-2V129h2.1v-3.3h1.9v3.3h2.9v0.9h-2.9v5.7c0,1.2,0.3,2,1.6,2
	c1.1,0,1.2-0.9,1.3-1.7h0.5C448.9,137.5,447.9,138.8,446.3,138.8"/>
<path fill="#FFFFFF" d="M452.9,138.9c-1,0-2.2-0.5-2.5-0.9l-0.2,0.7h-0.7l-0.1-3.3h0.4c0.2,1,1.5,3,3.2,3c1.5,0,2-0.8,2-1.8
	c0-1.1-0.8-1.6-2.5-2c-1.4-0.4-2.9-1.2-2.9-3c0-1.6,1.2-2.8,3.2-2.8c0.8,0,1.7,0.2,2.2,0.6l0.2-0.6h0.7l0.1,2.9h-0.4
	c-0.2-1.2-1.3-2.4-2.8-2.4c-1.3,0-1.7,0.7-1.7,1.5c0,1.2,0.7,1.5,2.5,2c1.7,0.6,2.9,1.4,2.9,3.1
	C456.5,137.8,454.9,138.9,452.9,138.9"/>
<path fill="#FFFFFF" d="M467,124.4c-1.4,0-1.7,1.4-1.7,2c0,0.9,0.4,1.9,1.4,3.3c1.4-0.8,1.9-1.8,1.9-3.2
	C468.7,125.2,467.9,124.4,467,124.4 M465.1,131.1c-1.3,0.8-1.7,2-1.7,3.4c0,1.7,1,3.1,2.8,3.1c1.1,0,2.1-0.5,2.8-1.3
	C467.8,134.7,466.1,132.5,465.1,131.1 M473.6,130.9c-0.6,0.7-1.3,2.8-2.7,4.4c0.6,0.7,1.7,1.8,2.2,2.2c0.7,0.4,1.9,0.7,2.8,0.7v0.5
	h-5l-1.5-1.8c-1,1-2.3,2.2-4.1,2.2c-2,0-4.1-1.1-4.1-3.5c0-2,1.2-3.2,3.6-4.7c-1.1-1.7-1.5-2.6-1.5-3.7c0-1.9,1.7-3.3,3.7-3.3
	c1.9,0,2.7,1.4,2.7,2.9c0,1.3-0.9,2.5-2.6,3.5c1.3,1.9,2.2,3,3.5,4.7c0.9-1.3,1.7-2.9,1.7-3.9c0-0.5-0.8-0.9-1.9-1.1v-0.4h6.1v0.4
	C475.2,130,474.2,130.2,473.6,130.9"/>
<path fill="#FFFFFF" d="M486.9,124.6c-0.5,0-1.4,0-1.9,0v11.7c0.1,1,0.7,1.6,2.3,1.6c3.8,0,5.5-2.8,5.5-6.6
	C492.9,127.5,490.5,124.6,486.9,124.6 M487.1,138.6h-6.5v-0.5c0.4,0,1.3-0.1,1.6-0.2c0.5-0.2,0.7-0.6,0.7-1V126
	c0-0.5-0.1-0.9-0.7-1.1c-0.5-0.2-1.1-0.3-1.5-0.3v-0.5h6.9c2.9,0,8,1.5,8,7.4C495.5,136.4,491.2,138.6,487.1,138.6"/>
<path fill="#FFFFFF" d="M501,129.2c-1.3,0-2.3,1.3-2.3,3.3l4.3,0C503,130.9,502.6,129.2,501,129.2 M501.3,138.9
	c-3.2,0-4.7-2.3-4.7-5.2c0-2.6,1.6-5,4.5-5c2.9,0,4,1.9,4,4.1v0.2h-6.4v0.2c0,2.8,0.9,4.7,3.2,4.7c1.7,0,2.2-0.6,3-1.9l0.4,0.3
	C504.5,137.8,503.1,138.9,501.3,138.9"/>
<path fill="#FFFFFF" d="M509.4,138.9c-1,0-2.2-0.5-2.5-0.9l-0.2,0.7H506l-0.1-3.3h0.4c0.2,1,1.5,3,3.2,3c1.5,0,2-0.8,2-1.8
	c0-1.1-0.8-1.6-2.5-2c-1.4-0.4-2.9-1.2-2.9-3c0-1.6,1.2-2.8,3.2-2.8c0.8,0,1.7,0.2,2.2,0.6l0.2-0.6h0.7l0.2,2.9h-0.4
	c-0.2-1.2-1.3-2.4-2.8-2.4c-1.3,0-1.7,0.7-1.7,1.5c0,1.2,0.7,1.5,2.5,2c1.7,0.6,2.9,1.4,2.9,3.1C513,137.8,511.4,138.9,509.4,138.9"
	/>
<path fill="#FFFFFF" d="M516.3,126c-0.7,0-1.3-0.6-1.3-1.3c0-0.7,0.6-1.3,1.3-1.3c0.8,0,1.3,0.6,1.3,1.3
	C517.7,125.3,517.1,126,516.3,126 M514,138.6v-0.4c0.4,0,0.6-0.1,0.9-0.2c0.4-0.1,0.6-0.5,0.6-1V131c0-0.4-0.2-0.8-0.6-1.1
	c-0.3-0.2-0.9-0.4-1.3-0.4v-0.4l3.6-0.2l0.1,0.1v8c0,0.4,0.2,0.8,0.6,1c0.3,0.2,0.7,0.2,0.9,0.3v0.4H514z"/>
<path fill="#FFFFFF" d="M522.9,129.2c-1.4,0-1.7,1.2-1.7,2.6c0,1.5,0.7,2.7,1.8,2.7c1.3,0,1.8-1.2,1.8-2.6
	C524.8,130.5,524.3,129.2,522.9,129.2 M525.8,138.9c-0.5-0.1-1.4-0.2-3.3-0.2c-1.5,0.3-2.1,0.9-2.1,2.2c0,0.9,0.8,1.9,3.2,1.9
	c2.1,0,3.3-0.8,3.3-2.5C526.8,139.9,526.8,139.2,525.8,138.9 M528.2,130.8c-0.7,0-0.9-0.5-0.9-1.4c-0.7,0-1,0.1-1.3,0.4v0.1
	c0.5,0.6,0.8,1.4,0.8,2c0,1.9-1.9,3-3.6,3h-1.2c-0.4,0.2-0.7,0.4-0.7,0.9c0,1,1.2,1,2.3,1c0.6,0,1.9,0.1,2.4,0.1
	c1.3,0.1,2.7,1.1,2.7,2.9c0,2-1.7,3.5-5.4,3.5c-3.4,0-4.7-1-4.7-2.6c0-1.2,1.1-2.2,3.4-2.3v-0.1c-0.8-0.2-2.2-0.7-2.2-1.9
	c0-1,1.2-1.5,1.9-1.7v-0.1c-1.5-0.6-2.4-1.6-2.4-2.8c0-2,1.7-3.1,3.8-3.1c1.5,0,2.6,0.6,2.9,0.6c0.8-0.5,1.2-0.6,2.2-0.6
	c0.5,0,1,0.4,1,1C529.1,130.3,528.7,130.8,528.2,130.8"/>
<path fill="#FFFFFF" d="M535.6,138.6v-0.4c0.4,0,0.7-0.1,1-0.2c0.4-0.1,0.6-0.5,0.6-1v-5.1c0-1.5-0.9-2.3-1.8-2.3
	c-1.6,0-2.4,1-2.7,1.5v5.8c0,0.5,0.2,0.8,0.6,1c0.3,0.2,0.6,0.2,1,0.3v0.4h-5v-0.4c0.4,0,0.6-0.1,0.9-0.2c0.4-0.1,0.6-0.5,0.6-1V131
	c0-0.4-0.2-0.9-0.6-1.1c-0.3-0.2-0.7-0.3-1-0.3v-0.4l3.4-0.2l0.1,0.1v1.5h0c0.8-0.8,1.6-1.8,3.5-1.8c2,0,2.9,1.3,2.9,3.4v4.9
	c0,0.5,0.2,0.8,0.6,1c0.3,0.1,0.6,0.2,0.9,0.2v0.4H535.6z"/>
<rect x="167.6" y="39.1" fill="#FFFFFF" width="1" height="98.5"/>
<path fill="#FFFFFF" d="M123.8,42.8c2-4.7,7.1-5.5,7.1-5.5c-4-0.1-16.6,1.9-17.7,14.4c-0.4,4.1,1.1,7.6,2.9,10.5
	c-2.1-1.6-4.7-4.4-5.1-8.1c-0.3-3,1.3-7.6,1.3-7.6c-3,3.6-6.3,8.1-5.6,14.1c0.7,5.7,4.4,9.5,7,12.7c-1.9-0.9-3-1.8-4.8-3.6
	c0.6,6.8,2.7,12,7.4,14.6c-6.1-0.6-7.3-4.9-9-9.7c-1.2-3.3-3.2-5.2-5.1-7.3c2.9,0.6,4.5,2.4,5.9,4.4c-0.9-5.9-5.1-8.4-11.1-9.2
	c2.5-2.3,6.7,0,8.7,1.1c0,0-1.2-2.4-2.3-3.6c-2.9-3.1-9.3-2.4-13.2-1.1c1.4-2.4,5.1-4.3,8.4-3.3c-2-1.7-4.5-3-7.6-3.2
	c-5.4-0.4-9.9,2.6-12.5,4.6c0.6-3.5,3.5-4.8,6-6.3c-9-1.5-13.5,4.1-16.5,9.7c-0.3-3.4,2.7-7.3,2.7-7.3c-11,4.5-9.4,16.9-9.4,16.9
	c-2-1.2-2-5.8-1.3-7.9c0,0-2.2,3.2-2.3,7.7c-0.1,4.6,3.1,9.4,3.1,9.4c-3.3-0.5-5.4-7.1-5.4-7.1c-1.8,9.3,6.1,16.7,6.1,16.7
	c-3.6-0.4-6.6-4.8-6.6-4.8c1.3,9.2,9.3,14.1,9.3,14.1c-2.5,0.5-6.2-2-6.2-2c3.1,7,7.7,10.4,7.7,10.4c-2.8,0.1-5.8-3.3-5.8-3.3
	c-0.3,3.3,1.6,7.6,1.6,7.6c-2.9-1-3.7-5.1-3.7-5.1c-2.4,3.3-1.9,8.2-1.9,8.2c-2.8-1.8-2.6-5.8-2.6-5.8c-2.7,1.4-4.3,6.8-4.3,6.8
	c-1.4-2.9,0.1-6.4,0.1-6.4c-3.8,1-6.2,5.4-6.2,5.4c-0.2-2.7,1.5-6,1.5-6c-3,0.1-5.5,4.3-5.5,4.3c-0.5-2.8,2.1-5.9,2.1-5.9
	c-3.3-0.3-6.1,3.2-6.1,3.2c-0.4-3.2,2.8-5.6,2.8-5.6c-3.5-0.8-6.1,2.3-6.1,2.3c-0.5-3.4,3.2-5.8,3.2-5.8c-2.8-1.2-5.8,1.3-5.8,1.3
	c-0.3-3.5,3.5-5.4,3.5-5.4c-2.4-1.6-5.4,0-5.4,0c0.5-2.8,4-3.6,4-3.6c-2-2.3-5-2.1-5-2.1c1-2.5,4.3-2.1,4.3-2.1
	c-1.6-2.2-4.5-3-4.5-3c1.8-1.5,4.4-0.5,4.4-0.5c-0.7-2.5-3.7-3.9-3.7-3.9c2.3-0.8,4.5,0.8,4.5,0.8c-0.3-2.3-2.7-4.4-2.7-4.4
	c2.7,0.1,4.5,2.1,4.5,2.1c0-1.9-1.3-4.3-1.3-4.3c2.2,0.7,4.1,2.9,4.1,2.9c0.2-1.8-0.3-2.9-0.3-2.9c3.6,1.3,5.9,4.1,7.8,7.1
	c-1-5.6-4.5-9.7-10.1-10.1c-9.8-0.8-16,10.3-16,18.4c0,9.5,3.2,15.8,7.5,22C29.5,119.8,38,125.3,46,127c-2.5,0.8-4.9,2.8-4.9,5.2
	c4.1,0.3,7.5,2.2,9.3,4.4h14.5c3.5,0,6.7-0.1,7.9-0.3c2.7-0.6,3.9-6.6,7.1-6.5c3.2,0.1,2.2,5.3-0.5,5.4c-0.9,0-1.3-0.4-2.1-0.6
	c2.9,6.9,11.4-0.9,7.4-5.7c4.6,0.2,4.3,6.2,1.1,6.8c5.1,0.5,6.5-4.6,4.2-8.2c-2.3-3.6-7-3-10.7-1.2c-3.7,1.8-7.1,3.1-9.5,3.4
	c-2,0.3-3.9,0.1-5.2-0.6c-3.8-2.2,3-6,4.6-7c6-3.6,12.4-8,13-16.6c0.5-6.4-2-9.8-4-13.8c-1.6-3.3-3.4-6.5-3.6-10.8
	c-0.4-5.8,3.9-10.1,9-9.8c7.2,0.3,10.9,6.1,11.4,13.3c0.2,2.9-0.4,6.3-0.6,9.2c-0.8,12,5,18.2,11.4,23.8c5.9,5.1,11.7,8.4,19,11.6
	c0.5,4.6,3.3,9.7,8.9,7.3c2.9,4.9,13.5,4,12-3.2c-0.7-3.4-5.7-3.8-5.3-7.7c0.2-1.8,2.3-2.8,4.2-2.2c2,0.7,3,3.8,2.9,6
	c3.2-5.3-0.1-13.1-6.7-11.6c-3.4,0.8-6.7,6.7-6.7,6.7c-4.2-2.3-8.3-4.6-8.3-4.6c9.8-0.5,16-4.8,19.6-11.4c4.7,1.1,7.9-2.2,6.7-6
	c0,0,4.1,1.3,4.6,4.6c0.5,3.4-4,4.1-6.6,2.5c0,0,2.2,5.2,6.3,4.2c4.1-1,3.7-5.4,2.8-7.2c-0.9-1.7-4.6-5.1-3.7-7.3
	c1-2.2,5.5-0.7,4.8,5c3.3-4.6,0.4-11.9-4.9-11.9c-3.9,0-5.5,3.4-6.5,6.8c0,0-1.3-0.5-2.7-0.2c-0.8-5.6-4.3-9.2-10-11.4
	c-5.1-2-10-5.4-10.5-10.9c-0.2-2.6,0.6-4.7,2.5-5.7c5.1-2.6,8.5,3,9.4,6.7c-0.1-4.3,1.6-6.4,3.5-8.6c-1.5-2.6-4.5-4.8-8.6-4.3
	c-2.8,0.4-5.5,1.9-5.5,1.9c1.3-3,3.6-8.3,8.6-8.5c4.1-0.2,6.1,3.4,7.3,7c0.7-6.7,4.3-11.4,7.6-14.9c-3.9,2.3-5.9-2.5-9.7-2.5
	c-5.4,0-8,5.9-12.5,6.5c-1.9,0.2-3.3-1.1-4.1-1.7C123,51.2,121.8,47.5,123.8,42.8 M141.7,49.7c1.3,0.1,2.7,0.9,2.7,1.9
	c0,1.7-1.6,2.1-2.8,1.9c-1.6-0.2-2.4-1.1-2.4-2.1C139.2,50.4,140.4,49.7,141.7,49.7 M119.4,104.3c-1.4,0.3-3.1-0.3-4.1-1.1
	c-3.3-2.5-4.7-9.3-4.9-14.6c1.4,3,3.7,7.8,7.8,6.5c1.4-0.4,3.1-2.3,3.1-2.3C122.4,96.3,123.5,103.5,119.4,104.3 M123.5,60
	c-1.9-0.7-1.3-6.4-1.3-6.4c0.4,2.6,3.5,4.4,6.2,2.9C128.4,56.4,125.7,60.8,123.5,60 M141.8,134.9c-1.6,2.7-6.1-0.3-6.1-0.3
	c1.3-1,2.1-2.7,2.4-4.8C140.3,129.9,143.5,132,141.8,134.9 M131.1,130.9c0,0-0.5,2.5-1.9,1.8c-1.4-0.7-1.8-2.9-1.8-2.9
	S129.1,130.4,131.1,130.9 M146,106.5c0.4-1.3,0.4-2.6,0.3-4.1C148.6,102.9,148.4,106.4,146,106.5"/>
<g>
	<path fill="#FFFFFF" d="M196.3,124.6c-0.2,0-0.4,0-0.6,0.1c-0.2,0.1-0.4,0.2-0.6,0.3c-0.2,0.2-0.4,0.3-0.6,0.5
		c-0.2,0.2-0.3,0.5-0.4,0.8c-0.5,1.6-1.1,3.5-1.7,5.7c-0.7,2.2-1.4,4.5-2.1,6.9h-1l-3.8-11.5l-3.9,11.5h-0.9c-0.7-2.5-1.4-5-2.2-7.6
		c-0.7-2.6-1.2-4.4-1.5-5.3c-0.1-0.2-0.2-0.4-0.3-0.6c-0.1-0.2-0.3-0.3-0.5-0.5c-0.2-0.1-0.4-0.2-0.6-0.3c-0.2-0.1-0.4-0.1-0.6-0.1
		v-0.7h6.1v0.7c-0.5,0-1,0.1-1.4,0.2c-0.4,0.1-0.6,0.2-0.6,0.4c0,0.1,0,0.2,0,0.3c0,0.1,0,0.2,0.1,0.3c0.2,0.6,0.4,1.6,0.9,3.1
		c0.4,1.4,1,3.5,1.8,6.4l3.7-11.1h1l3.8,11.3c0.5-1.7,0.9-3.3,1.3-4.6c0.4-1.3,0.7-2.4,0.9-3.3c0.2-0.7,0.3-1.1,0.3-1.3
		c0-0.2,0.1-0.4,0.1-0.6c0-0.2-0.2-0.4-0.5-0.6c-0.3-0.2-0.9-0.3-1.6-0.3v-0.7h5.4V124.6z"/>
	<path fill="#FFFFFF" d="M206,136.3c-0.4,0.8-1,1.5-1.7,2c-0.7,0.5-1.6,0.7-2.5,0.7c-0.8,0-1.6-0.1-2.2-0.4
		c-0.6-0.3-1.1-0.7-1.6-1.2c-0.4-0.5-0.7-1.1-0.9-1.8c-0.2-0.7-0.3-1.4-0.3-2.1c0-0.7,0.1-1.3,0.3-2c0.2-0.6,0.5-1.2,0.9-1.7
		c0.4-0.5,0.9-0.9,1.5-1.2c0.6-0.3,1.3-0.5,2-0.5c0.8,0,1.4,0.1,1.9,0.4c0.5,0.2,1,0.6,1.3,1c0.3,0.4,0.6,0.9,0.7,1.4
		c0.2,0.5,0.2,1.1,0.2,1.7v0.7h-6.9c0,0.7,0.1,1.3,0.2,1.9c0.1,0.6,0.3,1,0.6,1.5c0.3,0.4,0.6,0.7,1.1,1c0.4,0.2,1,0.4,1.6,0.4
		c0.6,0,1.2-0.1,1.6-0.4c0.5-0.3,0.9-0.8,1.3-1.6L206,136.3z M203.6,132.4c0-0.4,0-0.8-0.1-1.3c-0.1-0.4-0.2-0.8-0.3-1.1
		c-0.2-0.3-0.4-0.6-0.7-0.8c-0.3-0.2-0.6-0.3-1.1-0.3c-0.7,0-1.3,0.3-1.8,0.9c-0.5,0.6-0.8,1.5-0.8,2.6H203.6z"/>
	<path fill="#FFFFFF" d="M214,133.7c0.3,0.3,0.5,0.5,0.7,0.9c0.2,0.3,0.2,0.7,0.2,1.2c0,1-0.4,1.7-1.1,2.4c-0.7,0.6-1.6,0.9-2.8,0.9
		c-0.6,0-1.2-0.1-1.7-0.3c-0.5-0.2-0.9-0.4-1.1-0.6l-0.2,0.7h-0.8l-0.1-3.6h0.7c0.1,0.3,0.2,0.6,0.4,1c0.2,0.4,0.4,0.7,0.7,1
		c0.3,0.3,0.6,0.6,1,0.8c0.4,0.2,0.8,0.3,1.3,0.3c0.7,0,1.2-0.2,1.6-0.5c0.4-0.3,0.5-0.7,0.5-1.3c0-0.3-0.1-0.5-0.2-0.8
		c-0.1-0.2-0.3-0.4-0.5-0.6c-0.2-0.2-0.5-0.3-0.9-0.4c-0.3-0.1-0.7-0.3-1.1-0.4c-0.3-0.1-0.7-0.2-1.1-0.4c-0.4-0.2-0.7-0.4-1-0.6
		c-0.3-0.2-0.6-0.5-0.8-0.9c-0.2-0.4-0.3-0.8-0.3-1.3c0-0.8,0.3-1.6,0.9-2.2c0.6-0.6,1.5-0.9,2.5-0.9c0.4,0,0.8,0.1,1.2,0.2
		c0.4,0.1,0.8,0.2,1,0.4l0.2-0.5h0.8l0.2,3.3h-0.7c-0.1-0.7-0.5-1.4-1-1.8c-0.5-0.5-1.1-0.7-1.8-0.7c-0.6,0-1,0.1-1.4,0.4
		c-0.3,0.3-0.5,0.6-0.5,1c0,0.3,0.1,0.6,0.2,0.8c0.1,0.2,0.3,0.4,0.5,0.5c0.2,0.1,0.5,0.3,0.8,0.4c0.3,0.1,0.7,0.3,1.2,0.4
		c0.5,0.1,0.9,0.3,1.3,0.5C213.4,133.2,213.7,133.4,214,133.7z"/>
	<path fill="#FFFFFF" d="M222.9,138.3c-0.5,0.2-0.9,0.3-1.3,0.5c-0.4,0.1-0.9,0.2-1.5,0.2c-0.9,0-1.5-0.2-1.8-0.7
		c-0.4-0.4-0.5-1.1-0.5-1.9v-7h-1.9v-1h1.9v-3.2h1.9v3.2h3v1h-3v5.8c0,0.4,0,0.8,0,1.1c0,0.3,0.1,0.5,0.2,0.8
		c0.1,0.2,0.3,0.4,0.5,0.5c0.2,0.1,0.5,0.2,0.9,0.2c0.2,0,0.4,0,0.8,0c0.3,0,0.6-0.1,0.7-0.1V138.3z"/>
	<path fill="#FFFFFF" d="M233.3,129.6c0.4,0.5,0.7,1.1,1,1.7c0.2,0.6,0.3,1.4,0.3,2.2c0,0.8-0.1,1.6-0.4,2.2
		c-0.3,0.7-0.6,1.3-1.1,1.7c-0.5,0.5-1,0.9-1.6,1.1c-0.6,0.3-1.2,0.4-1.8,0.4c-0.6,0-1.1-0.1-1.5-0.2c-0.4-0.1-0.7-0.3-1-0.5h-0.1
		v3.1c0,0.3,0,0.5,0.1,0.6s0.2,0.3,0.5,0.4c0.2,0.1,0.4,0.1,0.7,0.2c0.3,0.1,0.6,0.1,0.8,0.1v0.7h-5.8v-0.7c0.2,0,0.4,0,0.6-0.1
		c0.2,0,0.4-0.1,0.5-0.1c0.2-0.1,0.4-0.2,0.4-0.4c0.1-0.2,0.1-0.4,0.1-0.6v-11c0-0.2-0.1-0.4-0.2-0.6c-0.1-0.2-0.2-0.4-0.4-0.5
		c-0.1-0.1-0.3-0.1-0.5-0.2c-0.2,0-0.4-0.1-0.7-0.1v-0.7l3.5-0.2l0.1,0.1v1.2l0.1,0c0.4-0.4,0.8-0.8,1.4-1.1
		c0.5-0.3,1.1-0.4,1.6-0.4c0.6,0,1.2,0.1,1.8,0.4C232.5,128.8,233,129.2,233.3,129.6z M231.6,137.1c0.3-0.4,0.5-0.9,0.6-1.5
		c0.1-0.6,0.2-1.2,0.2-1.9c0-0.5-0.1-1-0.2-1.6c-0.1-0.5-0.3-1-0.5-1.4c-0.2-0.4-0.5-0.7-0.9-1c-0.4-0.3-0.8-0.4-1.4-0.4
		c-0.5,0-1,0.1-1.3,0.3c-0.4,0.2-0.7,0.5-0.9,0.8v6.1c0.1,0.2,0.2,0.4,0.3,0.6c0.1,0.2,0.3,0.4,0.5,0.5c0.2,0.2,0.5,0.3,0.7,0.4
		c0.3,0.1,0.6,0.2,0.9,0.2c0.4,0,0.8-0.1,1.1-0.3C231.1,137.7,231.4,137.4,231.6,137.1z"/>
	<path fill="#FFFFFF" d="M247.4,138.7h-5.1v-0.7c0.2,0,0.3,0,0.5,0c0.2,0,0.4,0,0.5-0.1c0.2-0.1,0.3-0.2,0.4-0.3
		c0.1-0.2,0.1-0.4,0.1-0.6v-5.3c0-0.7-0.2-1.3-0.5-1.7c-0.3-0.4-0.8-0.6-1.3-0.6c-0.4,0-0.7,0.1-1,0.2c-0.3,0.1-0.6,0.3-0.8,0.4
		c-0.2,0.2-0.4,0.3-0.5,0.5c-0.1,0.2-0.2,0.3-0.3,0.4v6c0,0.2,0,0.4,0.1,0.6c0.1,0.2,0.2,0.3,0.4,0.4c0.2,0.1,0.3,0.1,0.5,0.2
		c0.2,0,0.3,0.1,0.5,0.1v0.7H236v-0.7c0.2,0,0.3,0,0.5,0c0.2,0,0.3,0,0.4-0.1c0.2-0.1,0.3-0.2,0.4-0.3c0.1-0.2,0.1-0.4,0.1-0.6
		v-12.1c0-0.2-0.1-0.5-0.2-0.7c-0.1-0.2-0.3-0.4-0.4-0.5c-0.1-0.1-0.3-0.2-0.7-0.2c-0.3,0-0.6-0.1-0.8-0.1v-0.7l3.8-0.2l0.1,0.2v7.2
		h0c0.2-0.2,0.4-0.4,0.6-0.6c0.2-0.2,0.4-0.4,0.7-0.6c0.3-0.2,0.6-0.3,0.9-0.4c0.4-0.1,0.8-0.2,1.2-0.2c0.9,0,1.6,0.3,2.1,0.9
		c0.5,0.6,0.7,1.4,0.7,2.5v5.4c0,0.2,0,0.4,0.1,0.6c0.1,0.2,0.2,0.3,0.4,0.4c0.2,0.1,0.3,0.1,0.4,0.1c0.1,0,0.3,0.1,0.5,0.1V138.7z"
		/>
	<path fill="#FFFFFF" d="M258.5,138.6c-0.3,0.1-0.6,0.2-0.9,0.3c-0.2,0.1-0.5,0.1-0.8,0.1c-0.5,0-1-0.1-1.3-0.4
		c-0.3-0.3-0.5-0.6-0.6-1.1h-0.1c-0.5,0.5-0.9,0.9-1.5,1.2c-0.5,0.3-1.2,0.4-1.9,0.4c-0.8,0-1.4-0.2-1.9-0.7
		c-0.5-0.5-0.8-1.1-0.8-1.9c0-0.4,0.1-0.8,0.2-1.1c0.1-0.3,0.3-0.6,0.5-0.9c0.2-0.2,0.4-0.4,0.7-0.6c0.3-0.2,0.6-0.3,0.8-0.4
		c0.3-0.1,1-0.3,1.9-0.7c1-0.3,1.6-0.6,1.9-0.8v-1c0-0.1,0-0.3-0.1-0.5c0-0.3-0.1-0.5-0.2-0.7c-0.1-0.3-0.3-0.5-0.6-0.7
		c-0.3-0.2-0.6-0.3-1.1-0.3c-0.3,0-0.6,0.1-0.9,0.2c-0.3,0.1-0.5,0.2-0.6,0.3c0,0.1,0,0.3,0.1,0.6c0.1,0.3,0.1,0.5,0.1,0.8
		c0,0.2-0.1,0.5-0.3,0.7c-0.2,0.2-0.5,0.3-0.9,0.3c-0.4,0-0.6-0.1-0.8-0.4c-0.2-0.2-0.2-0.5-0.2-0.8c0-0.3,0.1-0.6,0.3-0.9
		c0.2-0.3,0.5-0.6,0.9-0.8c0.3-0.2,0.7-0.4,1.1-0.5c0.4-0.1,0.9-0.2,1.3-0.2c0.6,0,1.1,0,1.5,0.1c0.4,0.1,0.8,0.3,1.2,0.5
		c0.4,0.3,0.6,0.6,0.8,1.1c0.2,0.4,0.3,1,0.3,1.7c0,1,0,1.9,0,2.7c0,0.8,0,1.6,0,2.5c0,0.3,0,0.5,0.1,0.7c0.1,0.2,0.2,0.3,0.4,0.4
		c0.1,0.1,0.3,0.1,0.5,0.1c0.2,0,0.5,0,0.7,0V138.6z M254.8,133c-0.6,0.2-1.1,0.3-1.6,0.5c-0.4,0.2-0.9,0.4-1.2,0.6
		c-0.4,0.2-0.6,0.5-0.8,0.8c-0.2,0.3-0.3,0.7-0.3,1.2c0,0.6,0.2,1,0.5,1.3c0.3,0.3,0.7,0.4,1.2,0.4c0.5,0,0.9-0.1,1.3-0.4
		c0.4-0.2,0.7-0.5,1-0.9L254.8,133z"/>
	<path fill="#FFFFFF" d="M264.4,138.7h-5.1v-0.7c0.2,0,0.3,0,0.5,0c0.2,0,0.3,0,0.5-0.1c0.2-0.1,0.3-0.2,0.4-0.3
		c0.1-0.2,0.1-0.4,0.1-0.6v-12c0-0.3-0.1-0.5-0.2-0.7c-0.1-0.2-0.3-0.4-0.4-0.5c-0.1-0.1-0.4-0.2-0.7-0.2c-0.3-0.1-0.6-0.1-0.8-0.1
		v-0.7l3.9-0.2l0.1,0.2v14.2c0,0.2,0,0.4,0.1,0.6c0.1,0.2,0.2,0.3,0.4,0.4c0.2,0.1,0.3,0.1,0.5,0.2c0.1,0,0.3,0.1,0.5,0.1V138.7z"/>
</g>
</svg>
