<?xml version="1.0" encoding="utf-8"?>
<!DOCTYPE svg PUBLIC "-//W3C//DTD SVG 1.1//EN" "http://www.w3.org/Graphics/SVG/1.1/DTD/svg11.dtd">
<svg version="1.1" id="Layer_1"
  xmlns="http://www.w3.org/2000/svg" xmlns:xlink="http://www.w3.org/1999/xlink" x="0px" y="0px" viewBox="0 0 157 157"
  enable-background="new 0 0 157 157" xml:space="preserve">
  <path id="Fill-1" fill="#FFFFFF" d="M69.7,54.5c2.3,0,4.1-1.8,4.1-4.1c0-2.3-1.8-4.1-4.1-4.1c-2.3,0-4.1,1.8-4.1,4.1 C65.6,52.7,67.4,54.5,69.7,54.5L69.7,54.5z M69.7,48.3c1.2,0,2.1,0.9,2.1,2.1c0,1.2-0.9,2.1-2.1,2.1c-1.2,0-2.1-0.9-2.1-2.1 C67.6,49.2,68.5,48.3,69.7,48.3L69.7,48.3z"/>
  <path id="Fill-2" fill="#FFFFFF" d="M86.1,54.5c2.3,0,4.1-1.8,4.1-4.1c0-2.3-1.8-4.1-4.1-4.1c-2.3,0-4.1,1.8-4.1,4.1 C82,52.7,83.9,54.5,86.1,54.5L86.1,54.5z M86.1,48.3c1.2,0,2.1,0.9,2.1,2.1c0,1.2-1,2.1-2.1,2.1c-1.2,0-2.1-0.9-2.1-2.1
    C84,49.2,85,48.3,86.1,48.3L86.1,48.3z"/>
  <path id="Fill-3" fill="#FFFFFF" d="M78.4,0.3C35.3,0.3,0.3,35.2,0.3,78.4c0,43.1,35,78.1,78.1,78.1s78.1-35,78.1-78.1 C156.4,35.2,121.5,0.3,78.4,0.3L78.4,0.3z M78.2,14.4c8.3,0,15.6,3,20.3,7.6l-1.9,2.8c-4-4.2-10.8-7-18.4-7c-7.6,0-14.4,2.8-18.4,7 L57.9,22C62.6,17.4,69.9,14.4,78.2,14.4L78.2,14.4z M78.4,24.5c-4.8,0-9.3,1.4-12.6,3.9c-0.8,0.6-1.5,1.2-2.1,1.9l-2-2.8 c3.8-3.9,9.8-6.4,16.7-6.4c6.7,0,12.6,2.4,16.4,6.1l-1.9,2.8c-0.5-0.6-1.1-1.1-1.8-1.6C87.7,25.9,83.2,24.5,78.4,24.5L78.4,24.5z M91,32.8l-1.9,2.8c-2.5-2.4-6.4-3.9-10.8-3.9c-4.4,0-8.4,1.6-10.9,4l-1.9-2.8c3.1-2.8,7.7-4.5,12.8-4.5C83.4,28.3,87.9,30,91,32.8 L91,32.8z M61.8,39.1H94c1.3,0,2.4,1.1,2.4,2.4v21c0,1.3-1.1,2.4-2.4,2.4H61.8c-1.3,0-2.4-1.1-2.4-2.4v-21 C59.4,40.2,60.5,39.1,61.8,39.1L61.8,39.1z M111.5,114.5l-1.9-1.9c1.1-0.8,1.7-2.1,1.7-3.5c0-2.4-2-4.4-4.4-4.4 c-2.4,0-4.4,2-4.4,4.4c0,1.4,0.7,2.7,1.8,3.5l-1.9,1.9c-1.6-1.3-2.5-3.3-2.5-5.5c0-1.8,0.6-3.4,1.7-4.6h0V82.3h-3.1v46.8l2.1,1.2 v3.8H79.3v-3.8l2.1-1.2h0v-14.2h-6.3v14.2l2.1,1.2v3.8l-21.2,0v-3.8l2.1-1.2l0-46.8h-3.1v22.2h0c1.1,1.2,1.7,2.9,1.7,4.6 c0,2.2-1,4.2-2.5,5.5l-1.9-1.9c1.1-0.8,1.8-2.1,1.8-3.5c0-2.4-2-4.4-4.4-4.4c-2.4,0-4.4,2-4.4,4.4c0,1.4,0.7,2.7,1.7,3.5l-1.9,1.9 c-1.5-1.3-2.5-3.3-2.5-5.4c0-1.8,0.6-3.4,1.7-4.6V69.9c0.1-1.3,1.1-2.4,2.5-2.4l63.4,0c1.3,0,2.4,1.1,2.5,2.4v34.6 c1.1,1.2,1.7,2.9,1.7,4.6C114.1,111.2,113.1,113.2,111.5,114.5L111.5,114.5z"/>
</svg>
