<?xml version="1.0" encoding="utf-8"?>
<!-- Generator: Adobe Illustrator 18.0.0, SVG Export Plug-In . SVG Version: 6.00 Build 0)  -->
<!DOCTYPE svg PUBLIC "-//W3C//DTD SVG 1.1//EN" "http://www.w3.org/Graphics/SVG/1.1/DTD/svg11.dtd">
<svg version="1.1" id="Layer_1" xmlns="http://www.w3.org/2000/svg" xmlns:xlink="http://www.w3.org/1999/xlink" x="0px" y="0px"
	 viewBox="0 0 612 792" enable-background="new 0 0 612 792" xml:space="preserve">
<g id="Twitter_1">
	<path fill="#FFFFFF" d="M612,204.8c-23,11.5-45.9,15.3-72.7,19.1c26.8-15.3,45.9-38.2,53.5-68.8c-23,15.3-49.7,22.9-80.3,30.6
		c-23-22.9-57.4-38.2-91.8-38.2c-65,0-122.4,57.4-122.4,126.2c0,11.5,0,19.1,3.8,26.8c-107.1-3.8-198.9-53.6-260.1-130.1
		c-11.5,19.1-15.3,38.2-15.3,65c0,42.1,30.6,80.3,61.2,103.3c-19.1,0-49.7-7.6-49.7-15.3l0,0c0,61.2,38.2,110.9,95.6,122.4
		c-11.5,3.8-26.8,3.8-38.2,3.8c-7.7,0-19.1,0-26.8-3.8c15.3,49.7,61.2,88,114.8,88c-42.1,34.4-95.6,53.5-156.8,53.5
		c-11.5,0-19.1,0-30.6,0c61.2,38.2,126.2,57.4,195.1,57.4c229.5,0,355.7-191.2,355.7-355.7c0-3.8,0-11.5,0-15.3
		C573.8,254.5,596.7,231.5,612,204.8z"/>
</g>
</svg>
